<svg width="143" height="60" viewBox="0 0 143 60" fill="none" xmlns="http://www.w3.org/2000/svg">
<path d="M1.27832 19.957C2.0804 19.8854 2.861 19.6742 3.62012 19.3232C4.37923 18.9652 5.07031 18.5068 5.69336 17.9482C6.32357 17.3896 6.86068 16.7523 7.30469 16.0361C7.75586 15.3128 8.07454 14.5501 8.26074 13.748C8.02441 13.8913 7.78451 14.0273 7.54102 14.1562C7.30469 14.2852 7.05046 14.3997 6.77832 14.5C6.51335 14.5931 6.23047 14.6683 5.92969 14.7256C5.62891 14.7757 5.29948 14.8008 4.94141 14.8008C4.31836 14.8008 3.75977 14.679 3.26562 14.4355C2.77148 14.1849 2.34896 13.8555 1.99805 13.4473C1.6543 13.0319 1.38932 12.5592 1.20312 12.0293C1.01693 11.4993 0.923828 10.9515 0.923828 10.3857C0.923828 9.69824 1.05273 9.05371 1.31055 8.45215C1.57552 7.85059 1.93717 7.3278 2.39551 6.88379C2.85384 6.43262 3.38737 6.07812 3.99609 5.82031C4.60482 5.5625 5.26009 5.43359 5.96191 5.43359C6.65658 5.43359 7.31185 5.5804 7.92773 5.87402C8.54362 6.16764 9.08073 6.57227 9.53906 7.08789C9.9974 7.59635 10.359 8.19792 10.624 8.89258C10.8962 9.58008 11.0322 10.3177 11.0322 11.1055C11.0322 11.9505 10.9141 12.7669 10.6777 13.5547C10.4486 14.3353 10.1191 15.0693 9.68945 15.7568C9.26693 16.4372 8.75846 17.0602 8.16406 17.626C7.57682 18.1846 6.92155 18.6644 6.19824 19.0654C5.47493 19.4665 4.69792 19.778 3.86719 20C3.03646 20.222 2.1735 20.333 1.27832 20.333V19.957ZM8.44336 12.9424C8.49349 12.6344 8.53646 12.2943 8.57227 11.9219C8.60807 11.5495 8.62598 11.1807 8.62598 10.8154C8.62598 10.1781 8.5472 9.5765 8.38965 9.01074C8.2321 8.44499 8.01725 7.95085 7.74512 7.52832C7.47298 7.09863 7.15072 6.75846 6.77832 6.50781C6.41309 6.25716 6.01921 6.13184 5.59668 6.13184C5.15983 6.13184 4.78385 6.22852 4.46875 6.42188C4.16081 6.61523 3.90658 6.87305 3.70605 7.19531C3.50553 7.51042 3.35514 7.86849 3.25488 8.26953C3.16178 8.67057 3.11523 9.0752 3.11523 9.4834C3.11523 10.1208 3.17253 10.708 3.28711 11.2451C3.40169 11.7751 3.57715 12.2334 3.81348 12.6201C4.0498 13.0068 4.35059 13.3076 4.71582 13.5225C5.08822 13.7373 5.52865 13.8447 6.03711 13.8447C6.23047 13.8447 6.43815 13.8232 6.66016 13.7803C6.88932 13.7301 7.11133 13.6657 7.32617 13.5869C7.54818 13.501 7.75586 13.4043 7.94922 13.2969C8.14258 13.1823 8.30729 13.0641 8.44336 12.9424ZM23.1602 19.4307C23.5111 19.4307 23.8584 19.3841 24.2021 19.291C24.5459 19.1908 24.8538 19.0475 25.126 18.8613C25.3981 18.668 25.6165 18.4352 25.7812 18.1631C25.946 17.8838 26.0283 17.5615 26.0283 17.1963C26.0283 16.7594 25.9137 16.3727 25.6846 16.0361C25.4626 15.6924 25.1689 15.3809 24.8037 15.1016C24.4385 14.8151 24.0195 14.5465 23.5469 14.2959C23.0814 14.0452 22.6051 13.7946 22.1182 13.5439C21.6312 13.2933 21.1514 13.0319 20.6787 12.7598C20.2132 12.4805 19.7979 12.1725 19.4326 11.8359C19.0674 11.4922 18.7702 11.1126 18.541 10.6973C18.319 10.2747 18.208 9.79134 18.208 9.24707C18.208 8.7028 18.3083 8.19792 18.5088 7.73242C18.7165 7.26693 19.0173 6.86589 19.4111 6.5293C19.805 6.18555 20.2884 5.91699 20.8613 5.72363C21.4414 5.53027 22.1038 5.43359 22.8486 5.43359C23.5218 5.43359 24.1234 5.50521 24.6533 5.64844C25.1833 5.79167 25.6488 6.00293 26.0498 6.28223C26.4508 6.56152 26.791 6.90527 27.0703 7.31348C27.3496 7.72168 27.5752 8.19434 27.7471 8.73145L26.5225 9.29004C26.3792 8.85319 26.1966 8.45573 25.9746 8.09766C25.7526 7.73242 25.4876 7.4209 25.1797 7.16309C24.8717 6.90527 24.5137 6.70833 24.1055 6.57227C23.7044 6.42904 23.2497 6.35742 22.7412 6.35742C22.29 6.35742 21.8962 6.42188 21.5596 6.55078C21.223 6.67253 20.9401 6.83724 20.7109 7.04492C20.4889 7.24544 20.3206 7.47461 20.2061 7.73242C20.0986 7.98307 20.0449 8.24089 20.0449 8.50586C20.0449 8.87826 20.1595 9.22201 20.3887 9.53711C20.6178 9.84505 20.9222 10.1387 21.3018 10.418C21.6813 10.6901 22.111 10.9551 22.5908 11.2129C23.0778 11.4707 23.5719 11.7321 24.0732 11.9971C24.5745 12.262 25.0651 12.5378 25.5449 12.8242C26.0319 13.1107 26.4652 13.4258 26.8447 13.7695C27.2243 14.1061 27.5286 14.4785 27.7578 14.8867C27.987 15.2878 28.1016 15.7389 28.1016 16.2402C28.1016 16.806 27.9941 17.3395 27.7793 17.8408C27.5645 18.335 27.2422 18.7682 26.8125 19.1406C26.3828 19.5059 25.8493 19.7959 25.2119 20.0107C24.5745 20.2256 23.8333 20.333 22.9883 20.333C22.3008 20.333 21.6885 20.2578 21.1514 20.1074C20.6143 19.957 20.138 19.7386 19.7227 19.4521C19.3145 19.1657 18.9635 18.8184 18.6699 18.4102C18.3763 17.9948 18.1364 17.5221 17.9502 16.9922L19.2285 16.4658C19.3789 16.9313 19.5794 17.3467 19.8301 17.7119C20.0879 18.0771 20.3851 18.3887 20.7217 18.6465C21.0583 18.8971 21.4307 19.0905 21.8389 19.2266C22.2542 19.3626 22.6947 19.4307 23.1602 19.4307ZM41.3359 5.75586V6.67969H33.8271V11.7715H38.8545V12.6953H33.8271V19.0762H41.3359V20H31.4316V5.75586H41.3359ZM44.1504 5.75586H48.6621C49.4069 5.75586 50.1051 5.84538 50.7568 6.02441C51.4085 6.20345 51.9743 6.46842 52.4541 6.81934C52.9411 7.16309 53.3206 7.58919 53.5928 8.09766C53.8721 8.59896 54.0117 9.17546 54.0117 9.82715C54.0117 10.4717 53.8757 11.0339 53.6035 11.5137C53.3385 11.9935 52.984 12.391 52.54 12.7061C52.1032 13.0212 51.6055 13.2575 51.0469 13.415C50.4883 13.5654 49.9189 13.6406 49.3389 13.6406C49.0882 13.6406 48.8268 13.637 48.5547 13.6299C48.2826 13.6156 48.0212 13.5977 47.7705 13.5762C47.5199 13.5547 47.2871 13.5296 47.0723 13.501C46.8574 13.4723 46.682 13.4437 46.5459 13.415V20H44.1504V5.75586ZM46.5459 12.6094C46.818 12.7025 47.1081 12.7812 47.416 12.8457C47.724 12.903 48.0391 12.9316 48.3613 12.9316C48.877 12.9316 49.3281 12.8564 49.7148 12.7061C50.1016 12.5485 50.4238 12.3372 50.6816 12.0723C50.9395 11.8001 51.1292 11.485 51.251 11.127C51.3799 10.7617 51.4443 10.375 51.4443 9.9668C51.4443 9.48698 51.362 9.05371 51.1973 8.66699C51.0326 8.28027 50.8034 7.95085 50.5098 7.67871C50.2233 7.39941 49.8831 7.18457 49.4893 7.03418C49.1025 6.88379 48.6872 6.80859 48.2432 6.80859H46.5459V12.6094ZM68.0625 5.75586V6.67969H62.9062V20H60.5107V6.67969H55.3545V5.75586H68.0625ZM80.3086 5.75586V6.67969H72.7998V11.7715H77.8271V12.6953H72.7998V19.0762H80.3086V20H70.4043V5.75586H80.3086ZM83.123 5.75586H85.5723L91.1152 16.6807H91.2334L96.6689 5.75586H99.0752V20H96.6689V8.32324H96.5938L90.75 20H90.2559L84.3477 8.41992H84.1865V20H83.123V5.75586ZM102.953 5.75586H108.689C109.449 5.75586 110.143 5.8418 110.773 6.01367C111.411 6.17839 111.955 6.41471 112.406 6.72266C112.865 7.0306 113.219 7.39941 113.47 7.8291C113.72 8.25879 113.846 8.73145 113.846 9.24707C113.846 9.64095 113.806 9.99186 113.728 10.2998C113.649 10.6077 113.509 10.8942 113.309 11.1592C113.108 11.417 112.84 11.6641 112.503 11.9004C112.174 12.1296 111.755 12.3659 111.246 12.6094V12.6523C111.755 12.7311 112.213 12.8672 112.621 13.0605C113.029 13.2539 113.377 13.501 113.663 13.8018C113.957 14.0954 114.182 14.4427 114.34 14.8438C114.497 15.2376 114.576 15.6709 114.576 16.1436C114.576 16.6807 114.458 17.1855 114.222 17.6582C113.993 18.1237 113.66 18.5319 113.223 18.8828C112.793 19.2266 112.27 19.4987 111.654 19.6992C111.046 19.8997 110.362 20 109.603 20H102.953V5.75586ZM105.349 12.1689H108.399C108.879 12.1689 109.305 12.1009 109.678 11.9648C110.05 11.8288 110.365 11.6426 110.623 11.4062C110.881 11.1628 111.074 10.8763 111.203 10.5469C111.339 10.2103 111.407 9.84863 111.407 9.46191C111.407 9.04655 111.328 8.67057 111.171 8.33398C111.013 7.99023 110.766 7.69661 110.43 7.45312C110.1 7.20964 109.678 7.02344 109.162 6.89453C108.654 6.76562 108.041 6.70117 107.325 6.70117H105.349V12.1689ZM105.349 18.958H107.938C108.632 18.958 109.234 18.8936 109.742 18.7646C110.258 18.6286 110.68 18.4424 111.01 18.2061C111.346 17.9626 111.593 17.6725 111.751 17.3359C111.916 16.9993 111.998 16.6305 111.998 16.2295C111.998 15.7783 111.926 15.3594 111.783 14.9727C111.64 14.5859 111.404 14.2529 111.074 13.9736C110.752 13.6872 110.326 13.4616 109.796 13.2969C109.273 13.1322 108.629 13.0498 107.862 13.0498H105.349V18.958ZM127.402 5.75586V6.67969H119.894V11.7715H124.921V12.6953H119.894V19.0762H127.402V20H117.498V5.75586H127.402ZM130.217 5.75586H135.158C136.01 5.75586 136.759 5.84896 137.403 6.03516C138.048 6.21419 138.585 6.46842 139.015 6.79785C139.444 7.12728 139.767 7.52116 139.981 7.97949C140.203 8.43066 140.314 8.9248 140.314 9.46191C140.314 9.90592 140.229 10.3213 140.057 10.708C139.892 11.0947 139.656 11.4456 139.348 11.7607C139.047 12.0687 138.682 12.3372 138.252 12.5664C137.822 12.7884 137.35 12.9639 136.834 13.0928L142.022 20H139.24L134.288 13.3076H132.612V20H130.217V5.75586ZM132.612 12.5879H133.998C134.535 12.5879 135.029 12.5163 135.48 12.373C135.939 12.2298 136.333 12.0293 136.662 11.7715C136.999 11.5065 137.26 11.1878 137.446 10.8154C137.632 10.443 137.726 10.0241 137.726 9.55859C137.726 9.12891 137.65 8.73503 137.5 8.37695C137.357 8.01888 137.149 7.71452 136.877 7.46387C136.612 7.20605 136.293 7.00553 135.921 6.8623C135.556 6.71908 135.155 6.64746 134.718 6.64746H132.612V12.5879Z" fill="#261200"/>
<path d="M47.9238 50V49.624C48.9766 48.6214 49.8896 47.7406 50.6631 46.9814C51.4365 46.2152 52.0918 45.5384 52.6289 44.9512C53.1732 44.3639 53.6136 43.8519 53.9502 43.415C54.2868 42.971 54.5482 42.5736 54.7344 42.2227C54.9206 41.8717 55.0459 41.5531 55.1104 41.2666C55.182 40.973 55.2178 40.6794 55.2178 40.3857C55.2178 39.9632 55.1497 39.555 55.0137 39.1611C54.8848 38.7601 54.6914 38.4092 54.4336 38.1084C54.1758 37.8005 53.8535 37.557 53.4668 37.3779C53.0801 37.1917 52.6289 37.0986 52.1133 37.0986C51.7194 37.0986 51.3291 37.1667 50.9424 37.3027C50.5628 37.4388 50.2155 37.625 49.9004 37.8613C49.5924 38.0905 49.3311 38.3626 49.1162 38.6777C48.9014 38.9857 48.7653 39.3151 48.708 39.666H48.2998C48.3428 39.0859 48.4932 38.5381 48.751 38.0225C49.016 37.5068 49.3561 37.0592 49.7715 36.6797C50.1868 36.293 50.6595 35.9886 51.1895 35.7666C51.7266 35.5446 52.2852 35.4336 52.8652 35.4336C53.6029 35.4336 54.2474 35.541 54.7988 35.7559C55.3574 35.9635 55.8229 36.2464 56.1953 36.6045C56.5749 36.9626 56.8577 37.3815 57.0439 37.8613C57.2373 38.334 57.334 38.8317 57.334 39.3545C57.334 39.7197 57.2803 40.0885 57.1729 40.4609C57.0654 40.8262 56.8971 41.2129 56.668 41.6211C56.446 42.0221 56.1523 42.4518 55.7871 42.9102C55.429 43.3685 54.9958 43.8698 54.4873 44.4141C53.9788 44.9583 53.3916 45.5599 52.7256 46.2188C52.0596 46.8704 51.3076 47.5902 50.4697 48.3779H58.0752L57.0225 50H47.9238ZM65.0898 50.333C64.3021 50.333 63.5824 50.1468 62.9307 49.7744C62.2861 49.402 61.7311 48.8828 61.2656 48.2168C60.8073 47.5508 60.4528 46.7559 60.2021 45.832C59.9515 44.9082 59.8262 43.8984 59.8262 42.8027C59.8262 41.793 59.9515 40.8405 60.2021 39.9453C60.4528 39.0501 60.8073 38.2695 61.2656 37.6035C61.7311 36.9303 62.2861 36.4004 62.9307 36.0137C63.5824 35.627 64.3021 35.4336 65.0898 35.4336C65.8776 35.4336 66.5938 35.627 67.2383 36.0137C67.8828 36.4004 68.4342 36.9303 68.8926 37.6035C69.3581 38.2695 69.7161 39.0501 69.9668 39.9453C70.2174 40.8405 70.3428 41.793 70.3428 42.8027C70.3428 43.8984 70.2174 44.9082 69.9668 45.832C69.7161 46.7559 69.3581 47.5508 68.8926 48.2168C68.4342 48.8828 67.8828 49.402 67.2383 49.7744C66.5938 50.1468 65.8776 50.333 65.0898 50.333ZM65.0898 49.624C65.5697 49.624 65.9886 49.4378 66.3467 49.0654C66.7048 48.693 67.002 48.1917 67.2383 47.5615C67.4746 46.9313 67.6501 46.208 67.7646 45.3916C67.8864 44.568 67.9473 43.7051 67.9473 42.8027C67.9473 41.9004 67.8864 41.0446 67.7646 40.2354C67.6501 39.4261 67.4746 38.7207 67.2383 38.1191C67.002 37.5104 66.7048 37.027 66.3467 36.6689C65.9886 36.3109 65.5697 36.1318 65.0898 36.1318C64.6029 36.1318 64.1803 36.3109 63.8223 36.6689C63.4642 37.027 63.167 37.5104 62.9307 38.1191C62.6943 38.7207 62.5189 39.4261 62.4043 40.2354C62.2897 41.0446 62.2324 41.9004 62.2324 42.8027C62.2324 43.7051 62.2897 44.568 62.4043 45.3916C62.5189 46.208 62.6943 46.9313 62.9307 47.5615C63.167 48.1917 63.4642 48.693 63.8223 49.0654C64.1803 49.4378 64.6029 49.624 65.0898 49.624ZM72.0293 50V49.624C73.082 48.6214 73.9951 47.7406 74.7686 46.9814C75.542 46.2152 76.1973 45.5384 76.7344 44.9512C77.2786 44.3639 77.7191 43.8519 78.0557 43.415C78.3923 42.971 78.6536 42.5736 78.8398 42.2227C79.026 41.8717 79.1514 41.5531 79.2158 41.2666C79.2874 40.973 79.3232 40.6794 79.3232 40.3857C79.3232 39.9632 79.2552 39.555 79.1191 39.1611C78.9902 38.7601 78.7969 38.4092 78.5391 38.1084C78.2812 37.8005 77.959 37.557 77.5723 37.3779C77.1855 37.1917 76.7344 37.0986 76.2188 37.0986C75.8249 37.0986 75.4346 37.1667 75.0479 37.3027C74.6683 37.4388 74.321 37.625 74.0059 37.8613C73.6979 38.0905 73.4365 38.3626 73.2217 38.6777C73.0068 38.9857 72.8708 39.3151 72.8135 39.666H72.4053C72.4482 39.0859 72.5986 38.5381 72.8564 38.0225C73.1214 37.5068 73.4616 37.0592 73.877 36.6797C74.2923 36.293 74.765 35.9886 75.2949 35.7666C75.832 35.5446 76.3906 35.4336 76.9707 35.4336C77.7083 35.4336 78.3529 35.541 78.9043 35.7559C79.4629 35.9635 79.9284 36.2464 80.3008 36.6045C80.6803 36.9626 80.9632 37.3815 81.1494 37.8613C81.3428 38.334 81.4395 38.8317 81.4395 39.3545C81.4395 39.7197 81.3857 40.0885 81.2783 40.4609C81.1709 40.8262 81.0026 41.2129 80.7734 41.6211C80.5514 42.0221 80.2578 42.4518 79.8926 42.9102C79.5345 43.3685 79.1012 43.8698 78.5928 44.4141C78.0843 44.9583 77.4971 45.5599 76.8311 46.2188C76.165 46.8704 75.4131 47.5902 74.5752 48.3779H82.1807L81.1279 50H72.0293ZM86.9717 42.5879C87.516 42.5234 88.0101 42.3981 88.4541 42.2119C88.9053 42.0257 89.292 41.7894 89.6143 41.5029C89.9365 41.2093 90.1872 40.8691 90.3662 40.4824C90.5452 40.0885 90.6348 39.6589 90.6348 39.1934C90.6348 38.8783 90.5703 38.5846 90.4414 38.3125C90.3197 38.0332 90.1442 37.7933 89.915 37.5928C89.693 37.3851 89.4245 37.224 89.1094 37.1094C88.8014 36.9876 88.4577 36.9268 88.0781 36.9268C87.806 36.9268 87.5231 36.9733 87.2295 37.0664C86.943 37.1595 86.6637 37.2884 86.3916 37.4531C86.1266 37.6107 85.8796 37.8005 85.6504 38.0225C85.4284 38.2373 85.2458 38.4665 85.1025 38.71L84.6729 38.5488C84.8232 38.1191 85.0238 37.7145 85.2744 37.335C85.5322 36.9554 85.8366 36.626 86.1875 36.3467C86.5456 36.0602 86.9502 35.8382 87.4014 35.6807C87.8525 35.516 88.3538 35.4336 88.9053 35.4336C89.4281 35.4336 89.915 35.5124 90.3662 35.6699C90.8245 35.8203 91.222 36.0316 91.5586 36.3037C91.9023 36.5687 92.1709 36.8838 92.3643 37.249C92.5648 37.6143 92.665 38.0117 92.665 38.4414C92.665 38.6634 92.6077 38.9105 92.4932 39.1826C92.3786 39.4548 92.221 39.7305 92.0205 40.0098C91.8271 40.2891 91.598 40.5648 91.333 40.8369C91.0752 41.1019 90.7995 41.3382 90.5059 41.5459C90.9141 41.6676 91.2936 41.8574 91.6445 42.1152C92.0026 42.3659 92.3141 42.6631 92.5791 43.0068C92.8441 43.3506 93.0518 43.723 93.2021 44.124C93.3597 44.5179 93.4385 44.9118 93.4385 45.3057C93.4385 46.1507 93.2738 46.8883 92.9443 47.5186C92.6149 48.1488 92.1602 48.6715 91.5801 49.0869C91 49.5023 90.3161 49.8138 89.5283 50.0215C88.7406 50.2292 87.8883 50.333 86.9717 50.333C86.585 50.333 86.2376 50.3044 85.9297 50.2471C85.6217 50.1898 85.3604 50.1074 85.1455 50C84.9307 49.8997 84.766 49.778 84.6514 49.6348C84.5368 49.4915 84.4795 49.334 84.4795 49.1621C84.4795 49.0117 84.5153 48.8864 84.5869 48.7861C84.6657 48.6787 84.7624 48.5964 84.877 48.5391C84.9915 48.4746 85.1169 48.4316 85.2529 48.4102C85.389 48.3815 85.5179 48.3672 85.6396 48.3672C85.8975 48.3672 86.1159 48.3923 86.2949 48.4424C86.4811 48.4925 86.6458 48.557 86.7891 48.6357C86.9323 48.7074 87.0648 48.7861 87.1865 48.8721C87.3083 48.958 87.4372 49.0404 87.5732 49.1191C87.7093 49.1908 87.8597 49.2516 88.0244 49.3018C88.1963 49.3519 88.4004 49.377 88.6367 49.377C89.1309 49.377 89.5677 49.2982 89.9473 49.1406C90.3268 48.9759 90.6455 48.7575 90.9033 48.4854C91.1611 48.2061 91.3545 47.891 91.4834 47.54C91.6195 47.182 91.6875 46.8096 91.6875 46.4229C91.6875 45.9287 91.5908 45.4704 91.3975 45.0479C91.2113 44.6253 90.9248 44.2601 90.5381 43.9521C90.1514 43.637 89.6608 43.3936 89.0664 43.2217C88.472 43.0426 87.7738 42.9531 86.9717 42.9531V42.5879Z" fill="#261200"/>
</svg>
