<svg width="133" height="126" viewBox="0 0 133 126" fill="none" xmlns="http://www.w3.org/2000/svg">
<path d="M33.5 12.7266C33.5703 13.3724 33.4505 13.9466 33.1406 14.4492C32.8333 14.9492 32.4089 15.3411 31.8672 15.625C31.3255 15.9062 30.7396 16.0404 30.1094 16.0273C29.5729 16.0326 29.0456 15.9479 28.5273 15.7734C28.0091 15.5964 27.5104 15.3724 27.0312 15.1016C26.5547 14.8281 26.1107 14.5495 25.6992 14.2656C25.7227 14.2109 25.7526 14.1367 25.7891 14.043C25.8958 13.7773 26.0182 13.4727 26.1562 13.1289C26.2943 12.7826 26.3945 12.5326 26.457 12.3789C26.457 12.3789 26.4622 12.4414 26.4727 12.5664C26.4857 12.6888 26.5312 12.8438 26.6094 13.0312C26.6901 13.2188 26.8268 13.4115 27.0195 13.6094C27.0586 13.6484 27.099 13.6862 27.1406 13.7227C27.4896 14.0482 27.8945 14.3789 28.3555 14.7148C28.819 15.0508 29.3008 15.3203 29.8008 15.5234C30.3008 15.7266 30.7799 15.7891 31.2383 15.7109C31.4674 15.6432 31.6836 15.5547 31.8867 15.4453C32.0378 15.3203 32.1419 15.1081 32.1992 14.8086C32.2565 14.5091 32.2083 14.1523 32.0547 13.7383C31.9036 13.3216 31.5898 12.8789 31.1133 12.4102C30.6367 11.9414 29.9401 11.4779 29.0234 11.0195C28.2943 10.6367 27.7279 10.2526 27.3242 9.86719C26.9232 9.47917 26.6393 9.07682 26.4727 8.66016C26.3086 8.24089 26.2201 7.79427 26.207 7.32031C26.207 7.125 26.2305 6.91406 26.2773 6.6875C26.3242 6.46094 26.418 6.25391 26.5586 6.06641C26.7357 5.81641 26.9922 5.63021 27.3281 5.50781C27.6667 5.38281 28.043 5.3125 28.457 5.29688C28.8711 5.27865 29.2812 5.30339 29.6875 5.37109C29.9427 5.40495 30.2279 5.45703 30.543 5.52734C30.8581 5.59505 31.1484 5.67969 31.4141 5.78125C31.5729 5.84375 31.7096 5.91406 31.8242 5.99219C31.8242 5.99219 31.8177 6.00781 31.8047 6.03906C31.7943 6.06771 31.7799 6.10286 31.7617 6.14453C31.7461 6.1862 31.7292 6.22786 31.7109 6.26953C31.6979 6.30339 31.6862 6.33203 31.6758 6.35547C31.668 6.37891 31.6641 6.39193 31.6641 6.39453C31.6432 6.44141 31.6016 6.54427 31.5391 6.70312C31.4766 6.85938 31.4076 7.03125 31.332 7.21875C31.2565 7.40365 31.1914 7.5638 31.1367 7.69922C31.1029 7.78516 31.0794 7.84505 31.0664 7.87891C31.069 7.8737 31.0638 7.8125 31.0508 7.69531C31.0378 7.57812 30.9935 7.42969 30.918 7.25C30.8451 7.06771 30.7188 6.87891 30.5391 6.68359C30.3281 6.49349 30.0781 6.30599 29.7891 6.12109C29.5443 5.97005 29.263 5.83724 28.9453 5.72266C28.6276 5.60807 28.3008 5.55078 27.9648 5.55078C27.6315 5.55078 27.3151 5.64844 27.0156 5.84375C26.7682 6.01042 26.6003 6.23047 26.5117 6.50391C26.4232 6.77734 26.4245 7.0638 26.5156 7.36328C26.6667 7.76953 26.9102 8.11328 27.2461 8.39453C27.5846 8.67318 27.9648 8.90755 28.3867 9.09766C28.8086 9.28776 29.2214 9.44922 29.625 9.58203C30.0234 9.70703 30.4323 9.85677 30.8516 10.0312C31.2708 10.2031 31.6667 10.4128 32.0391 10.6602C32.4115 10.9049 32.7279 11.1966 32.9883 11.5352C33.2487 11.8737 33.4193 12.2708 33.5 12.7266ZM39.2578 14.9141C39.2578 14.9505 39.2617 15.0117 39.2695 15.0977C39.2799 15.181 39.3008 15.276 39.332 15.3828C39.3659 15.487 39.4154 15.5885 39.4805 15.6875C39.5456 15.7839 39.6328 15.8646 39.7422 15.9297C39.8542 15.9948 39.9948 16.0273 40.1641 16.0273H39.2578L38.75 16.0234C38.5286 16.0234 38.3307 15.9609 38.1562 15.8359C37.9844 15.7109 37.862 15.5495 37.7891 15.3516C37.7812 15.3542 37.7734 15.3581 37.7656 15.3633C37.7526 15.3711 37.7396 15.3789 37.7266 15.3867C37.5365 15.4935 37.3424 15.5938 37.1445 15.6875C36.9596 15.776 36.7695 15.8503 36.5742 15.9102C36.4622 15.944 36.3385 15.974 36.2031 16C36.0677 16.0234 35.9258 16.0352 35.7773 16.0352C35.6471 16.0352 35.5143 16.0234 35.3789 16C35.2435 15.974 35.1081 15.931 34.9727 15.8711C34.7096 15.7539 34.4883 15.5781 34.3086 15.3438C34.1237 15.0964 34.0195 14.8281 33.9961 14.5391C33.9701 13.9896 34.1888 13.4948 34.6523 13.0547C34.8555 12.875 35.0729 12.7253 35.3047 12.6055C35.5365 12.4857 35.7708 12.3763 36.0078 12.2773L36.9609 11.8672L37.7266 11.5312V10.9609C37.7266 10.8125 37.7109 10.6432 37.6797 10.4531C37.6484 10.2604 37.5911 10.0768 37.5078 9.90234C37.4245 9.72786 37.3047 9.58854 37.1484 9.48438C36.9922 9.38021 36.7917 9.33724 36.5469 9.35547C36.5 9.36068 36.4544 9.36849 36.4102 9.37891C36.3945 9.38151 36.3789 9.38542 36.3633 9.39062C36.2096 9.44792 36.0977 9.55599 36.0273 9.71484C35.957 9.87109 35.9141 10.0365 35.8984 10.2109C35.8828 10.3854 35.8776 10.526 35.8828 10.6328C35.888 10.6615 35.8906 10.6901 35.8906 10.7188C35.8906 10.7214 35.8906 10.7253 35.8906 10.7305C35.8906 10.7331 35.8906 10.737 35.8906 10.7422C35.8906 10.7474 35.8906 10.75 35.8906 10.75C35.8776 10.9167 35.8125 11.056 35.6953 11.168C35.5781 11.2799 35.4362 11.3359 35.2695 11.3359C35.1003 11.3359 34.9544 11.276 34.832 11.1562C34.7122 11.0339 34.6523 10.888 34.6523 10.7188C34.6523 10.638 34.6654 10.5625 34.6914 10.4922C34.7018 10.4688 34.7122 10.4466 34.7227 10.4258C34.7279 10.4154 34.7331 10.4076 34.7383 10.4023C34.9388 10.0326 35.2279 9.73568 35.6055 9.51172C35.9831 9.28776 36.4062 9.17578 36.875 9.17578C37.1745 9.17578 37.4583 9.22396 37.7266 9.32031C38.1823 9.48438 38.5508 9.75 38.832 10.1172C39.1159 10.4818 39.2578 10.8971 39.2578 11.3633V14.9102C39.2578 14.9102 39.2578 14.9115 39.2578 14.9141ZM37.1172 15.5273C37.1901 15.4935 37.2747 15.4505 37.3711 15.3984C37.4674 15.3464 37.5521 15.3008 37.625 15.2617C37.6979 15.2201 37.7383 15.1979 37.7461 15.1953C37.7331 15.1328 37.7266 15.0677 37.7266 15V11.7031L36.8125 12.0977C36.6302 12.2018 36.4518 12.3451 36.2773 12.5273C36.1029 12.7096 35.9622 12.9427 35.8555 13.2266C35.7487 13.5078 35.7057 13.8503 35.7266 14.2539C35.7552 14.5977 35.8294 14.862 35.9492 15.0469C36.069 15.2318 36.207 15.3594 36.3633 15.4297C36.5195 15.5 36.6667 15.5378 36.8047 15.543C36.9453 15.5482 37.0495 15.543 37.1172 15.5273ZM48.1016 9.17188C47.8229 9.17188 47.5677 9.22656 47.3359 9.33594C47.1068 9.44531 46.9062 9.58594 46.7344 9.75781C46.5651 9.92708 46.4297 10.1094 46.3281 10.3047L43.3359 16.0039H43.1719L43.168 15.9883L40.1523 10.25C40.1393 10.2135 40.0677 10.1094 39.9375 9.9375C39.8073 9.76562 39.6146 9.59896 39.3594 9.4375C39.1068 9.27344 38.7891 9.1849 38.4062 9.17188H42.5117C42.3034 9.17188 42.1458 9.21484 42.0391 9.30078C41.9349 9.38672 41.8659 9.49219 41.832 9.61719C41.8008 9.73958 41.793 9.85938 41.8086 9.97656C41.8242 10.0938 41.8503 10.1875 41.8867 10.2578C41.8919 10.2682 41.9648 10.4089 42.1055 10.6797C42.2487 10.9505 42.4258 11.2878 42.6367 11.6914C42.8503 12.0951 43.0625 12.4987 43.2734 12.9023C43.487 13.306 43.6667 13.6471 43.8125 13.9258C43.9583 14.2044 44.0312 14.3438 44.0312 14.3438L46.1797 10.25C46.2083 10.1719 46.2266 10.0742 46.2344 9.95703C46.2448 9.83724 46.2331 9.71875 46.1992 9.60156C46.1654 9.48177 46.0977 9.38021 45.9961 9.29688C45.8971 9.21354 45.75 9.17188 45.5547 9.17188H48.1016ZM53.0977 13.9453H53.2695C53.0404 14.5104 52.7031 14.9688 52.2578 15.3203C51.8151 15.6693 51.319 15.8997 50.7695 16.0117C50.2227 16.1237 49.6771 16.1055 49.1328 15.957C48.5885 15.8086 48.1003 15.5182 47.668 15.0859C47.2227 14.6484 46.9271 14.1354 46.7812 13.5469C46.6328 12.9557 46.6328 12.3659 46.7812 11.7773C46.9271 11.1888 47.2227 10.6758 47.668 10.2383C48.0846 9.82161 48.5716 9.53255 49.1289 9.37109C49.6862 9.20964 50.2513 9.1901 50.8242 9.3125C50.8372 9.3125 50.918 9.33203 51.0664 9.37109C51.2148 9.41016 51.3867 9.47135 51.582 9.55469C51.7773 9.63542 51.9505 9.73958 52.1016 9.86719C52.2526 9.99219 52.3385 10.1393 52.3594 10.3086C52.3594 10.3086 52.3607 10.3372 52.3633 10.3945C52.3659 10.4518 52.3542 10.5299 52.3281 10.6289C52.3047 10.7279 52.2526 10.8398 52.1719 10.9648C52.0911 11.0898 51.9701 11.2214 51.8086 11.3594C51.6992 11.4479 51.5625 11.5534 51.3984 11.6758C51.237 11.7982 51.082 11.8997 50.9336 11.9805C50.5716 12.2044 50.1341 12.4375 49.6211 12.6797C49.1107 12.9219 48.7109 13.0977 48.4219 13.207C48.7135 13.7878 49.1055 14.276 49.5977 14.6719C50.0898 15.0677 50.6445 15.2878 51.2617 15.332C51.556 15.3268 51.8164 15.2552 52.043 15.1172C52.2721 14.9792 52.4648 14.8203 52.6211 14.6406C52.7773 14.4583 52.8958 14.2969 52.9766 14.1562C53.0573 14.0156 53.0977 13.9453 53.0977 13.9453ZM48.0078 11.1719C47.9531 11.7969 48.069 12.4284 48.3555 13.0664C48.5664 12.9831 48.8542 12.8607 49.2188 12.6992C49.7839 12.4284 50.2096 12.1602 50.4961 11.8945C50.7852 11.6263 50.9714 11.3724 51.0547 11.1328C51.1406 10.8906 51.1602 10.6706 51.1133 10.4727C51.069 10.2747 50.9935 10.1081 50.8867 9.97266C50.7409 9.77995 50.5599 9.63932 50.3438 9.55078C50.1276 9.45964 49.8997 9.41536 49.6602 9.41797C49.2044 9.46224 48.8307 9.62109 48.5391 9.89453C48.2474 10.168 48.0703 10.5938 48.0078 11.1719ZM61.3828 9.16797H59.0742V14.8125C59.0742 14.8333 59.0794 14.8971 59.0898 15.0039C59.1003 15.1081 59.1276 15.2227 59.1719 15.3477C59.2161 15.4701 59.2865 15.5703 59.3828 15.6484C59.4792 15.7266 59.612 15.75 59.7812 15.7188C59.8307 15.6953 59.8802 15.6706 59.9297 15.6445C60.0104 15.5742 60.0495 15.4961 60.0469 15.4102C60.0443 15.3216 60.0208 15.2513 59.9766 15.1992C59.8594 15.0924 59.8034 14.9701 59.8086 14.832C59.8164 14.694 59.8698 14.5781 59.9688 14.4844C60.0703 14.3906 60.2018 14.3555 60.3633 14.3789C60.4961 14.4049 60.5977 14.4727 60.668 14.582C60.7409 14.6914 60.7643 14.8112 60.7383 14.9414C60.7227 15.0117 60.694 15.0742 60.6523 15.1289C60.4987 15.4076 60.2812 15.6263 60 15.7852C59.7188 15.9414 59.4102 16.0091 59.0742 15.9883C58.6367 15.9466 58.2747 15.7721 57.9883 15.4648C57.7018 15.1576 57.5534 14.7812 57.543 14.3359C57.543 14.3021 57.543 14.0312 57.543 13.5234C57.543 13.013 57.543 12.4232 57.543 11.7539C57.543 11.0846 57.543 10.4948 57.543 9.98438C57.543 9.47396 57.543 9.20182 57.543 9.16797H56.5586V9.01172C56.8581 8.98568 57.168 8.88151 57.4883 8.69922C57.8112 8.51432 58.112 8.25911 58.3906 7.93359C58.6719 7.60807 58.8997 7.22005 59.0742 6.76953V9.01172H61.3828V9.16797ZM66.6016 14.9102V10.8125C66.6042 10.7344 66.5951 10.612 66.5742 10.4453C66.5534 10.276 66.5065 10.1068 66.4336 9.9375C66.3633 9.76562 66.2526 9.63672 66.1016 9.55078C65.9531 9.46224 65.7513 9.45964 65.4961 9.54297C65.4414 9.56641 65.388 9.59115 65.3359 9.61719C64.862 9.85938 64.4401 10.2552 64.0703 10.8047C63.8906 11.0781 63.7292 11.362 63.5859 11.6562V14.8828V14.9102C63.5859 14.9492 63.5898 15.0117 63.5977 15.0977C63.6081 15.181 63.6289 15.2747 63.6602 15.3789C63.694 15.4831 63.7435 15.5846 63.8086 15.6836C63.8737 15.7826 63.9609 15.8646 64.0703 15.9297C64.1823 15.9922 64.3229 16.0234 64.4922 16.0234H61.1484C61.3177 16.0234 61.457 15.9922 61.5664 15.9297C61.6784 15.8646 61.7669 15.7839 61.832 15.6875C61.8971 15.5885 61.9453 15.487 61.9766 15.3828C62.0078 15.276 62.0286 15.181 62.0391 15.0977C62.0495 15.0117 62.0547 14.9492 62.0547 14.9102V7.13672C62.0521 6.98828 62.0391 6.86719 62.0156 6.77344C61.9922 6.67969 61.9609 6.60677 61.9219 6.55469C61.8854 6.5026 61.8464 6.46615 61.8047 6.44531C61.763 6.42188 61.7227 6.40885 61.6836 6.40625C61.6471 6.40104 61.6172 6.40104 61.5938 6.40625C61.5703 6.41146 61.5586 6.41406 61.5586 6.41406L63.5859 5.26172V11.3125C63.6927 11.1068 63.8112 10.9076 63.9414 10.7148C64.3268 10.1445 64.7682 9.73307 65.2656 9.48047C65.7057 9.26172 66.151 9.17578 66.6016 9.22266C66.7682 9.23828 66.9258 9.27474 67.0742 9.33203C67.3737 9.45182 67.6185 9.63281 67.8086 9.875C68.0013 10.1172 68.1107 10.3854 68.1367 10.6797V14.8828V14.9102C68.1341 14.9492 68.138 15.0117 68.1484 15.0977C68.1589 15.181 68.1797 15.2747 68.2109 15.3789C68.2422 15.4831 68.2904 15.5846 68.3555 15.6836C68.4206 15.7826 68.5078 15.8646 68.6172 15.9297C68.7292 15.9922 68.8698 16.0234 69.0391 16.0234H65.6992C65.8685 16.0234 66.0078 15.9922 66.1172 15.9297C66.2266 15.8646 66.3138 15.7839 66.3789 15.6875C66.4466 15.5885 66.4961 15.487 66.5273 15.3828C66.5586 15.276 66.5794 15.181 66.5898 15.0977C66.6003 15.0117 66.6042 14.9492 66.6016 14.9102ZM75.4023 13.9453H75.5742C75.3451 14.5104 75.0078 14.9688 74.5625 15.3203C74.1198 15.6693 73.6237 15.8997 73.0742 16.0117C72.5273 16.1237 71.9818 16.1055 71.4375 15.957C70.8932 15.8086 70.4049 15.5182 69.9727 15.0859C69.5273 14.6484 69.2318 14.1354 69.0859 13.5469C68.9375 12.9557 68.9375 12.3659 69.0859 11.7773C69.2318 11.1888 69.5273 10.6758 69.9727 10.2383C70.3893 9.82161 70.8763 9.53255 71.4336 9.37109C71.9909 9.20964 72.556 9.1901 73.1289 9.3125C73.1419 9.3125 73.2227 9.33203 73.3711 9.37109C73.5195 9.41016 73.6914 9.47135 73.8867 9.55469C74.082 9.63542 74.2552 9.73958 74.4062 9.86719C74.5573 9.99219 74.6432 10.1393 74.6641 10.3086C74.6641 10.3086 74.6654 10.3372 74.668 10.3945C74.6706 10.4518 74.6589 10.5299 74.6328 10.6289C74.6094 10.7279 74.5573 10.8398 74.4766 10.9648C74.3958 11.0898 74.2747 11.2214 74.1133 11.3594C74.0039 11.4479 73.8672 11.5534 73.7031 11.6758C73.5417 11.7982 73.3867 11.8997 73.2383 11.9805C72.8763 12.2044 72.4388 12.4375 71.9258 12.6797C71.4154 12.9219 71.0156 13.0977 70.7266 13.207C71.0182 13.7878 71.4102 14.276 71.9023 14.6719C72.3945 15.0677 72.9492 15.2878 73.5664 15.332C73.8607 15.3268 74.1211 15.2552 74.3477 15.1172C74.5768 14.9792 74.7695 14.8203 74.9258 14.6406C75.082 14.4583 75.2005 14.2969 75.2812 14.1562C75.362 14.0156 75.4023 13.9453 75.4023 13.9453ZM70.3125 11.1719C70.2578 11.7969 70.3737 12.4284 70.6602 13.0664C70.8711 12.9831 71.1589 12.8607 71.5234 12.6992C72.0885 12.4284 72.5143 12.1602 72.8008 11.8945C73.0898 11.6263 73.276 11.3724 73.3594 11.1328C73.4453 10.8906 73.4648 10.6706 73.418 10.4727C73.3737 10.2747 73.2982 10.1081 73.1914 9.97266C73.0456 9.77995 72.8646 9.63932 72.6484 9.55078C72.4323 9.45964 72.2044 9.41536 71.9648 9.41797C71.5091 9.46224 71.1354 9.62109 70.8438 9.89453C70.5521 10.168 70.375 10.5938 70.3125 11.1719ZM85.6445 10.1953C85.9701 10.5234 86.2188 10.8958 86.3906 11.3125C86.5625 11.7266 86.6484 12.1628 86.6484 12.6211C86.6484 13.0794 86.5625 13.5169 86.3906 13.9336C86.2188 14.3503 85.9701 14.7214 85.6445 15.0469C85.3164 15.3724 84.944 15.6224 84.5273 15.7969C84.1133 15.9688 83.6771 16.0547 83.2188 16.0547C82.9115 16.0547 82.612 16.0143 82.3203 15.9336C82.1823 15.8971 82.0482 15.8516 81.918 15.7969C81.5482 15.6458 81.2109 15.4323 80.9062 15.1562C80.901 15.151 80.8958 15.1458 80.8906 15.1406C80.888 15.138 80.8854 15.1354 80.8828 15.1328V18.8359V18.8633C80.8828 18.8685 80.8828 18.875 80.8828 18.8828C80.8828 18.9375 80.8906 19.0182 80.9062 19.125C80.9219 19.2109 80.9466 19.3021 80.9805 19.3984C81.0169 19.4974 81.0677 19.5898 81.1328 19.6758C81.2005 19.7643 81.2865 19.8359 81.3906 19.8906C81.4974 19.9479 81.6289 19.9766 81.7852 19.9766H78.4453C78.599 19.9766 78.7292 19.9492 78.8359 19.8945C78.9401 19.8398 79.026 19.7695 79.0938 19.6836C79.1589 19.5977 79.2096 19.5065 79.2461 19.4102C79.2826 19.3138 79.3073 19.2227 79.3203 19.1367C79.3411 19.0091 79.3503 18.918 79.3477 18.8633V11.0859C79.3477 10.9375 79.3346 10.8164 79.3086 10.7227C79.2852 10.6289 79.2552 10.556 79.2188 10.5039C79.1797 10.4518 79.1393 10.4154 79.0977 10.3945C79.056 10.3737 79.0169 10.362 78.9805 10.3594C78.944 10.3542 78.9141 10.3542 78.8906 10.3594C78.8646 10.3646 78.8516 10.3672 78.8516 10.3672L80.8828 9.21484V10.1133C81.1901 9.82422 81.5352 9.60156 81.918 9.44531C81.9883 9.41667 82.0599 9.39062 82.1328 9.36719C82.4818 9.25 82.8438 9.19141 83.2188 9.19141C83.6771 9.19141 84.1133 9.27734 84.5273 9.44922C84.944 9.62109 85.3164 9.86979 85.6445 10.1953ZM80.8828 14.9141C81.1562 15.1927 81.4701 15.4167 81.8242 15.5859C81.8607 15.6068 81.9635 15.638 82.1328 15.6797C82.3021 15.7188 82.5117 15.724 82.7617 15.6953C83.0117 15.6641 83.2747 15.5534 83.5508 15.3633C83.9674 15.0534 84.2982 14.6654 84.543 14.1992C84.7878 13.7305 84.9102 13.2201 84.9102 12.668C84.9102 12.0794 84.7708 11.5404 84.4922 11.0508C84.2161 10.5586 83.8451 10.1602 83.3789 9.85547C83.306 9.80859 83.2318 9.76432 83.1562 9.72266C82.849 9.57943 82.569 9.52344 82.3164 9.55469C82.0664 9.58333 81.8698 9.63411 81.7266 9.70703C81.7292 9.70703 81.7318 9.70573 81.7344 9.70312C81.737 9.70312 81.7396 9.70182 81.7422 9.69922C81.7396 9.70182 81.737 9.70312 81.7344 9.70312C81.7266 9.70833 81.7201 9.71224 81.7148 9.71484C81.7201 9.71224 81.724 9.70964 81.7266 9.70703C81.6172 9.76953 81.556 9.80339 81.543 9.80859C81.3008 9.95443 81.0807 10.1289 80.8828 10.332V14.9141ZM87.4453 7.13672C87.4427 6.99089 87.4297 6.87109 87.4062 6.77734C87.3828 6.68359 87.3529 6.61068 87.3164 6.55859C87.2799 6.50651 87.2409 6.46875 87.1992 6.44531C87.1602 6.42188 87.1211 6.40885 87.082 6.40625C87.0456 6.40104 87.0143 6.40104 86.9883 6.40625C86.9648 6.40885 86.9518 6.41146 86.9492 6.41406L88.9766 5.25781V14.8828C88.9766 14.8828 88.9805 14.9219 88.9883 15C88.9987 15.0755 89.0195 15.1706 89.0508 15.2852C89.082 15.3971 89.1302 15.5091 89.1953 15.6211C89.263 15.7331 89.3516 15.8281 89.4609 15.9062C89.5729 15.9844 89.7122 16.0234 89.8789 16.0234H86.5391C86.7083 16.0234 86.8477 15.9909 86.957 15.9258C87.069 15.8607 87.1576 15.7799 87.2227 15.6836C87.2878 15.5846 87.3359 15.4831 87.3672 15.3789C87.3984 15.2747 87.4193 15.181 87.4297 15.0977C87.4401 15.0117 87.4453 14.9492 87.4453 14.9102V7.13672ZM95 14.9141C95 14.9505 95.0039 15.0117 95.0117 15.0977C95.0221 15.181 95.043 15.276 95.0742 15.3828C95.1081 15.487 95.1576 15.5885 95.2227 15.6875C95.2878 15.7839 95.375 15.8646 95.4844 15.9297C95.5964 15.9948 95.737 16.0273 95.9062 16.0273H95L94.4922 16.0234C94.2708 16.0234 94.0729 15.9609 93.8984 15.8359C93.7266 15.7109 93.6042 15.5495 93.5312 15.3516C93.5234 15.3542 93.5156 15.3581 93.5078 15.3633C93.4948 15.3711 93.4818 15.3789 93.4688 15.3867C93.2786 15.4935 93.0846 15.5938 92.8867 15.6875C92.7018 15.776 92.5117 15.8503 92.3164 15.9102C92.2044 15.944 92.0807 15.974 91.9453 16C91.8099 16.0234 91.668 16.0352 91.5195 16.0352C91.3893 16.0352 91.2565 16.0234 91.1211 16C90.9857 15.974 90.8503 15.931 90.7148 15.8711C90.4518 15.7539 90.2305 15.5781 90.0508 15.3438C89.8659 15.0964 89.7617 14.8281 89.7383 14.5391C89.7122 13.9896 89.931 13.4948 90.3945 13.0547C90.5977 12.875 90.8151 12.7253 91.0469 12.6055C91.2786 12.4857 91.513 12.3763 91.75 12.2773L92.7031 11.8672L93.4688 11.5312V10.9609C93.4688 10.8125 93.4531 10.6432 93.4219 10.4531C93.3906 10.2604 93.3333 10.0768 93.25 9.90234C93.1667 9.72786 93.0469 9.58854 92.8906 9.48438C92.7344 9.38021 92.5339 9.33724 92.2891 9.35547C92.2422 9.36068 92.1966 9.36849 92.1523 9.37891C92.1367 9.38151 92.1211 9.38542 92.1055 9.39062C91.9518 9.44792 91.8398 9.55599 91.7695 9.71484C91.6992 9.87109 91.6562 10.0365 91.6406 10.2109C91.625 10.3854 91.6198 10.526 91.625 10.6328C91.6302 10.6615 91.6328 10.6901 91.6328 10.7188C91.6328 10.7214 91.6328 10.7253 91.6328 10.7305C91.6328 10.7331 91.6328 10.737 91.6328 10.7422C91.6328 10.7474 91.6328 10.75 91.6328 10.75C91.6198 10.9167 91.5547 11.056 91.4375 11.168C91.3203 11.2799 91.1784 11.3359 91.0117 11.3359C90.8424 11.3359 90.6966 11.276 90.5742 11.1562C90.4544 11.0339 90.3945 10.888 90.3945 10.7188C90.3945 10.638 90.4076 10.5625 90.4336 10.4922C90.444 10.4688 90.4544 10.4466 90.4648 10.4258C90.4701 10.4154 90.4753 10.4076 90.4805 10.4023C90.681 10.0326 90.9701 9.73568 91.3477 9.51172C91.7253 9.28776 92.1484 9.17578 92.6172 9.17578C92.9167 9.17578 93.2005 9.22396 93.4688 9.32031C93.9245 9.48438 94.293 9.75 94.5742 10.1172C94.8581 10.4818 95 10.8971 95 11.3633V14.9102C95 14.9102 95 14.9115 95 14.9141ZM92.8594 15.5273C92.9323 15.4935 93.0169 15.4505 93.1133 15.3984C93.2096 15.3464 93.2943 15.3008 93.3672 15.2617C93.4401 15.2201 93.4805 15.1979 93.4883 15.1953C93.4753 15.1328 93.4688 15.0677 93.4688 15V11.7031L92.5547 12.0977C92.3724 12.2018 92.194 12.3451 92.0195 12.5273C91.8451 12.7096 91.7044 12.9427 91.5977 13.2266C91.4909 13.5078 91.4479 13.8503 91.4688 14.2539C91.4974 14.5977 91.5716 14.862 91.6914 15.0469C91.8112 15.2318 91.9492 15.3594 92.1055 15.4297C92.2617 15.5 92.4089 15.5378 92.5469 15.543C92.6875 15.5482 92.7917 15.543 92.8594 15.5273ZM102.18 13.9336C102.18 13.9336 102.188 13.9336 102.203 13.9336C102.221 13.9336 102.241 13.9336 102.262 13.9336C102.285 13.9336 102.305 13.9336 102.32 13.9336C102.339 13.9336 102.348 13.9336 102.348 13.9336C102.043 14.6237 101.628 15.1432 101.102 15.4922C100.578 15.8411 100.013 16.0312 99.4062 16.0625C98.7995 16.0964 98.2214 15.9857 97.6719 15.7305C97.1224 15.4727 96.6693 15.0846 96.3125 14.5664C95.9583 14.0456 95.7682 13.4076 95.7422 12.6523C95.7526 11.957 95.9258 11.349 96.2617 10.8281C96.6003 10.3073 97.0391 9.90625 97.5781 9.625C98.1198 9.34115 98.7005 9.20833 99.3203 9.22656C99.9401 9.24219 100.536 9.44271 101.109 9.82812C101.294 9.92969 101.404 10.0859 101.438 10.2969C101.458 10.487 101.409 10.651 101.289 10.7891C101.169 10.9245 101.013 10.9948 100.82 11C100.656 11 100.516 10.9453 100.398 10.8359C100.281 10.7266 100.215 10.5898 100.199 10.4258C100.092 10.0898 99.9102 9.83594 99.6523 9.66406C99.3945 9.49219 99.0898 9.40755 98.7383 9.41016C98.2852 9.45443 97.9115 9.61328 97.6172 9.88672C97.3255 10.1602 97.1484 10.5859 97.0859 11.1641C97.0417 11.6224 97.0951 12.0898 97.2461 12.5664C97.3971 13.0404 97.625 13.4818 97.9297 13.8906C98.2344 14.2969 98.5924 14.6302 99.0039 14.8906C99.418 15.151 99.8633 15.2956 100.34 15.3242C100.634 15.3164 100.895 15.2448 101.121 15.1094C101.35 14.9714 101.543 14.8125 101.699 14.6328C101.855 14.4505 101.974 14.2891 102.055 14.1484C102.138 14.0052 102.18 13.9336 102.18 13.9336ZM109.184 13.9453H109.355C109.126 14.5104 108.789 14.9688 108.344 15.3203C107.901 15.6693 107.405 15.8997 106.855 16.0117C106.309 16.1237 105.763 16.1055 105.219 15.957C104.674 15.8086 104.186 15.5182 103.754 15.0859C103.309 14.6484 103.013 14.1354 102.867 13.5469C102.719 12.9557 102.719 12.3659 102.867 11.7773C103.013 11.1888 103.309 10.6758 103.754 10.2383C104.171 9.82161 104.658 9.53255 105.215 9.37109C105.772 9.20964 106.337 9.1901 106.91 9.3125C106.923 9.3125 107.004 9.33203 107.152 9.37109C107.301 9.41016 107.473 9.47135 107.668 9.55469C107.863 9.63542 108.036 9.73958 108.188 9.86719C108.339 9.99219 108.424 10.1393 108.445 10.3086C108.445 10.3086 108.447 10.3372 108.449 10.3945C108.452 10.4518 108.44 10.5299 108.414 10.6289C108.391 10.7279 108.339 10.8398 108.258 10.9648C108.177 11.0898 108.056 11.2214 107.895 11.3594C107.785 11.4479 107.648 11.5534 107.484 11.6758C107.323 11.7982 107.168 11.8997 107.02 11.9805C106.658 12.2044 106.22 12.4375 105.707 12.6797C105.197 12.9219 104.797 13.0977 104.508 13.207C104.799 13.7878 105.191 14.276 105.684 14.6719C106.176 15.0677 106.73 15.2878 107.348 15.332C107.642 15.3268 107.902 15.2552 108.129 15.1172C108.358 14.9792 108.551 14.8203 108.707 14.6406C108.863 14.4583 108.982 14.2969 109.062 14.1562C109.143 14.0156 109.184 13.9453 109.184 13.9453ZM104.094 11.1719C104.039 11.7969 104.155 12.4284 104.441 13.0664C104.652 12.9831 104.94 12.8607 105.305 12.6992C105.87 12.4284 106.296 12.1602 106.582 11.8945C106.871 11.6263 107.057 11.3724 107.141 11.1328C107.227 10.8906 107.246 10.6706 107.199 10.4727C107.155 10.2747 107.079 10.1081 106.973 9.97266C106.827 9.77995 106.646 9.63932 106.43 9.55078C106.214 9.45964 105.986 9.41536 105.746 9.41797C105.29 9.46224 104.917 9.62109 104.625 9.89453C104.333 10.168 104.156 10.5938 104.094 11.1719Z" fill="#F3E1CE"/>
<path d="M32.1802 44.9009C31.8657 44.9897 31.5718 45.1128 31.2983 45.27C31.0317 45.4272 30.7959 45.6118 30.5908 45.8237C30.3926 46.0288 30.2354 46.251 30.1191 46.4902C30.0029 46.7295 29.9448 46.9756 29.9448 47.2285C29.9448 47.3789 29.9756 47.5122 30.0371 47.6284C30.0986 47.7378 30.1704 47.7925 30.2524 47.7925C30.3413 47.7925 30.4131 47.7754 30.4678 47.7412C30.5293 47.707 30.5908 47.6694 30.6523 47.6284C30.7139 47.5874 30.7822 47.5498 30.8574 47.5156C30.9395 47.4814 31.0454 47.4644 31.1753 47.4644C31.312 47.4644 31.4385 47.4951 31.5547 47.5566C31.6777 47.6113 31.7837 47.6899 31.8726 47.7925C31.9683 47.895 32.0435 48.0181 32.0981 48.1616C32.1528 48.3052 32.1802 48.459 32.1802 48.623C32.1802 48.8008 32.1426 48.9648 32.0674 49.1152C31.9922 49.2656 31.8896 49.3955 31.7598 49.5049C31.6367 49.6143 31.4897 49.7031 31.3188 49.7715C31.1548 49.833 30.9771 49.8638 30.7856 49.8638C30.5327 49.8638 30.2969 49.8091 30.0781 49.6997C29.8594 49.5835 29.668 49.4297 29.5039 49.2383C29.3398 49.04 29.21 48.8145 29.1143 48.5615C29.0186 48.3018 28.9707 48.0249 28.9707 47.731C28.9707 47.2661 29.0562 46.8389 29.2271 46.4492C29.4048 46.0596 29.6372 45.7212 29.9243 45.4341C30.2183 45.1401 30.5601 44.9077 30.9497 44.7368C31.3394 44.5591 31.7495 44.4565 32.1802 44.4292V44.9009ZM35.8818 44.9009C35.5742 44.9897 35.2837 45.1128 35.0103 45.27C34.7368 45.4272 34.501 45.6118 34.3027 45.8237C34.1045 46.0288 33.9473 46.251 33.8311 46.4902C33.7148 46.7295 33.6567 46.9756 33.6567 47.2285C33.6567 47.3789 33.6841 47.5122 33.7388 47.6284C33.8003 47.7378 33.8755 47.7925 33.9644 47.7925C34.0532 47.7925 34.125 47.7754 34.1797 47.7412C34.2412 47.707 34.2993 47.6694 34.354 47.6284C34.4155 47.5874 34.4839 47.5498 34.5591 47.5156C34.6411 47.4814 34.7471 47.4644 34.877 47.4644C35.0137 47.4644 35.1401 47.4951 35.2563 47.5566C35.3794 47.6113 35.4854 47.6899 35.5742 47.7925C35.6699 47.895 35.7451 48.0181 35.7998 48.1616C35.8545 48.3052 35.8818 48.459 35.8818 48.623C35.8818 48.8008 35.8442 48.9648 35.769 49.1152C35.7007 49.2656 35.6016 49.3955 35.4717 49.5049C35.3486 49.6143 35.2017 49.7031 35.0308 49.7715C34.8599 49.833 34.6787 49.8638 34.4873 49.8638C34.2344 49.8638 33.9985 49.8091 33.7798 49.6997C33.561 49.5835 33.3696 49.4297 33.2056 49.2383C33.0415 49.04 32.9116 48.8145 32.8159 48.5615C32.7202 48.3018 32.6724 48.0249 32.6724 47.731C32.6724 47.2661 32.7578 46.8389 32.9287 46.4492C33.1064 46.0596 33.3423 45.7212 33.6362 45.4341C33.9302 45.1401 34.2686 44.9077 34.6514 44.7368C35.041 44.5591 35.4512 44.4565 35.8818 44.4292V44.9009ZM39.0708 45.4033L44.208 56.2212L48.9761 45.4033H50.063L43.8901 59.3179H43.2954L36.6611 45.4033H39.0708ZM51.96 45.4033H54.2466V59H51.96V45.4033ZM57.9482 45.4033H60.2349V58.1182H67.0845V59H57.9482V45.4033ZM69.125 45.4033H71.4116V58.1182H78.2612V59H69.125V45.4033ZM85.6235 45.0957L92.022 59H89.6943L87.623 54.4678H81.7886L79.6455 59H78.4971L85.0493 45.0957H85.6235ZM82.1885 53.5859H87.2026L84.7314 48.2026L82.1885 53.5859ZM92.8115 49.3921C93.1191 49.3032 93.4097 49.1802 93.6831 49.0229C93.9565 48.8657 94.1958 48.6846 94.4009 48.4795C94.606 48.2676 94.7666 48.042 94.8828 47.8027C94.999 47.5635 95.0571 47.3174 95.0571 47.0645C95.0571 46.9141 95.0264 46.7842 94.9648 46.6748C94.9033 46.5586 94.8247 46.5005 94.729 46.5005C94.647 46.5005 94.5786 46.5176 94.5239 46.5518C94.4692 46.5859 94.4111 46.6235 94.3496 46.6646C94.2881 46.7056 94.2163 46.7432 94.1343 46.7773C94.0591 46.8115 93.9565 46.8286 93.8267 46.8286C93.6899 46.8286 93.5601 46.8013 93.437 46.7466C93.314 46.6851 93.2046 46.603 93.1089 46.5005C93.02 46.3911 92.9482 46.2681 92.8936 46.1313C92.8389 45.9878 92.8115 45.834 92.8115 45.6699C92.8115 45.4922 92.8457 45.3281 92.9141 45.1777C92.9893 45.0205 93.0918 44.8872 93.2217 44.7778C93.3516 44.6685 93.4985 44.583 93.6626 44.5215C93.8335 44.46 94.0181 44.4292 94.2163 44.4292C94.4692 44.4292 94.7051 44.4873 94.9238 44.6035C95.1426 44.7129 95.334 44.8667 95.498 45.0649C95.6621 45.2563 95.7886 45.4819 95.8774 45.7417C95.9731 45.9946 96.021 46.2681 96.021 46.562C96.021 47.0269 95.9321 47.4541 95.7544 47.8438C95.5835 48.2334 95.3511 48.5752 95.0571 48.8691C94.77 49.1562 94.4316 49.3887 94.042 49.5664C93.6523 49.7373 93.2422 49.8364 92.8115 49.8638V49.3921ZM96.5132 49.3921C96.8276 49.3032 97.1216 49.1802 97.395 49.0229C97.6685 48.8657 97.9043 48.6846 98.1025 48.4795C98.3076 48.2676 98.4683 48.042 98.5845 47.8027C98.7007 47.5635 98.7588 47.3174 98.7588 47.0645C98.7588 46.9141 98.728 46.7842 98.6665 46.6748C98.6118 46.5586 98.5366 46.5005 98.4409 46.5005C98.3589 46.5005 98.2905 46.5176 98.2358 46.5518C98.1812 46.5859 98.123 46.6235 98.0615 46.6646C98 46.7056 97.9282 46.7432 97.8462 46.7773C97.771 46.8115 97.6685 46.8286 97.5386 46.8286C97.395 46.8286 97.2617 46.8013 97.1387 46.7466C97.0156 46.6851 96.9062 46.603 96.8105 46.5005C96.7217 46.3911 96.6499 46.2681 96.5952 46.1313C96.5405 45.9878 96.5132 45.834 96.5132 45.6699C96.5132 45.4922 96.5508 45.3281 96.626 45.1777C96.7012 45.0205 96.8003 44.8872 96.9233 44.7778C97.0532 44.6685 97.2036 44.583 97.3745 44.5215C97.5454 44.46 97.73 44.4292 97.9282 44.4292C98.1812 44.4292 98.417 44.4873 98.6357 44.6035C98.8545 44.7129 99.0425 44.8667 99.1997 45.0649C99.3638 45.2563 99.4902 45.4819 99.5791 45.7417C99.6748 45.9946 99.7227 46.2681 99.7227 46.562C99.7227 47.0269 99.6372 47.4541 99.4663 47.8438C99.2954 48.2334 99.063 48.5752 98.769 48.8691C98.4751 49.1562 98.1333 49.3887 97.7437 49.5664C97.354 49.7373 96.9438 49.8364 96.5132 49.8638V49.3921ZM2.24902 74.4033H6.96582C7.7793 74.4033 8.49365 74.4922 9.10889 74.6699C9.72412 74.8408 10.2368 75.0835 10.647 75.3979C11.0571 75.7124 11.3647 76.0884 11.5698 76.5259C11.7817 76.9565 11.8877 77.4282 11.8877 77.9409C11.8877 78.3647 11.8057 78.7612 11.6416 79.1304C11.4844 79.4995 11.2588 79.8345 10.9648 80.1353C10.6777 80.4292 10.3291 80.6855 9.91895 80.9043C9.50879 81.1162 9.05762 81.2837 8.56543 81.4067L13.5181 88H10.8623L6.13525 81.6118H4.53564V88H2.24902V74.4033ZM4.53564 80.9248H5.8584C6.37109 80.9248 6.84277 80.8564 7.27344 80.7197C7.71094 80.583 8.08691 80.3916 8.40137 80.1455C8.72266 79.8926 8.97217 79.5884 9.1499 79.2329C9.32764 78.8774 9.4165 78.4775 9.4165 78.0332C9.4165 77.623 9.34473 77.2471 9.20117 76.9053C9.06445 76.5635 8.86621 76.2729 8.60645 76.0337C8.35352 75.7876 8.04932 75.5962 7.69385 75.4595C7.34521 75.3228 6.9624 75.2544 6.54541 75.2544H4.53564V80.9248ZM24.8281 74.4033V75.2852H17.6606V80.1455H22.4595V81.0273H17.6606V87.1182H24.8281V88H15.374V74.4033H24.8281ZM31.9648 87.4565C32.2998 87.4565 32.6313 87.4121 32.9595 87.3232C33.2876 87.2275 33.5815 87.0908 33.8413 86.9131C34.1011 86.7285 34.3096 86.5063 34.4668 86.2466C34.624 85.98 34.7026 85.6724 34.7026 85.3237C34.7026 84.9067 34.5933 84.5376 34.3745 84.2163C34.1626 83.8882 33.8823 83.5908 33.5337 83.3242C33.1851 83.0508 32.7852 82.7944 32.334 82.5552C31.8896 82.3159 31.4351 82.0767 30.9702 81.8374C30.5054 81.5981 30.0474 81.3486 29.5962 81.0889C29.1519 80.8223 28.7554 80.5283 28.4067 80.207C28.0581 79.8789 27.7744 79.5166 27.5557 79.1201C27.3438 78.7168 27.2378 78.2554 27.2378 77.7358C27.2378 77.2163 27.3335 76.7344 27.5249 76.29C27.7231 75.8457 28.0103 75.4629 28.3862 75.1416C28.7622 74.8135 29.2236 74.5571 29.7705 74.3726C30.3242 74.188 30.9565 74.0957 31.6675 74.0957C32.3101 74.0957 32.8843 74.1641 33.3901 74.3008C33.896 74.4375 34.3403 74.6392 34.7231 74.9058C35.106 75.1724 35.4307 75.5005 35.6973 75.8901C35.9639 76.2798 36.1792 76.731 36.3433 77.2437L35.1743 77.7769C35.0376 77.3599 34.8633 76.9805 34.6514 76.6387C34.4395 76.29 34.1865 75.9927 33.8926 75.7466C33.5986 75.5005 33.2568 75.3125 32.8672 75.1826C32.4844 75.0459 32.0503 74.9775 31.5649 74.9775C31.1343 74.9775 30.7583 75.0391 30.437 75.1621C30.1157 75.2783 29.8457 75.4355 29.627 75.6338C29.415 75.8252 29.2544 76.0439 29.145 76.29C29.0425 76.5293 28.9912 76.7754 28.9912 77.0283C28.9912 77.3838 29.1006 77.7119 29.3193 78.0127C29.5381 78.3066 29.8286 78.5869 30.1909 78.8535C30.5532 79.1133 30.9634 79.3662 31.4214 79.6123C31.8862 79.8584 32.3579 80.1079 32.8364 80.3608C33.3149 80.6138 33.7832 80.877 34.2412 81.1504C34.7061 81.4238 35.1196 81.7246 35.4819 82.0527C35.8442 82.374 36.1348 82.7295 36.3535 83.1191C36.5723 83.502 36.6816 83.9326 36.6816 84.4111C36.6816 84.9512 36.5791 85.4604 36.374 85.939C36.1689 86.4106 35.8613 86.8242 35.4512 87.1797C35.041 87.5283 34.5317 87.8052 33.9233 88.0103C33.3149 88.2153 32.6074 88.3179 31.8008 88.3179C31.1445 88.3179 30.5601 88.2461 30.0474 88.1025C29.5347 87.959 29.0801 87.7505 28.6836 87.4771C28.2939 87.2036 27.959 86.8721 27.6787 86.4824C27.3984 86.0859 27.1694 85.6348 26.9917 85.1289L28.2119 84.6265C28.3555 85.0708 28.5469 85.4673 28.7861 85.8159C29.0322 86.1646 29.3159 86.4619 29.6372 86.708C29.9585 86.9473 30.314 87.1318 30.7036 87.2617C31.1001 87.3916 31.5205 87.4565 31.9648 87.4565ZM50.5449 74.4033V75.2852H45.623V88H43.3364V75.2852H38.4146V74.4033H50.5449ZM56.6665 74.0957L63.0649 88H60.7373L58.666 83.4678H52.8315L50.6885 88H49.54L56.0923 74.0957H56.6665ZM53.2314 82.5859H58.2456L55.7744 77.2026L53.2314 82.5859ZM64.5723 74.4033H66.8589V83.2319C66.8589 83.813 66.958 84.3599 67.1562 84.8726C67.3545 85.3784 67.6382 85.8228 68.0073 86.2056C68.3765 86.5884 68.8208 86.8926 69.3403 87.1182C69.8667 87.3369 70.4512 87.4463 71.0938 87.4463C71.7432 87.4463 72.3276 87.3369 72.8472 87.1182C73.3667 86.8926 73.8076 86.5884 74.1699 86.2056C74.5391 85.8228 74.8193 85.3784 75.0107 84.8726C75.209 84.3599 75.3081 83.813 75.3081 83.2319V74.4033H76.313V83.2319C76.313 83.9292 76.2002 84.5854 75.9746 85.2007C75.749 85.8159 75.3936 86.356 74.9082 86.8208C74.4297 87.2788 73.8145 87.6445 73.0625 87.918C72.3105 88.1846 71.4082 88.3179 70.3555 88.3179C69.4189 88.3179 68.5884 88.1846 67.8638 87.918C67.146 87.6445 66.541 87.2754 66.0488 86.8105C65.5635 86.3457 65.1943 85.8022 64.9414 85.1802C64.6953 84.5513 64.5723 83.8813 64.5723 83.1704V74.4033ZM79.7891 74.4033H84.5059C85.3193 74.4033 86.0337 74.4922 86.6489 74.6699C87.2642 74.8408 87.7769 75.0835 88.187 75.3979C88.5972 75.7124 88.9048 76.0884 89.1099 76.5259C89.3218 76.9565 89.4277 77.4282 89.4277 77.9409C89.4277 78.3647 89.3457 78.7612 89.1816 79.1304C89.0244 79.4995 88.7988 79.8345 88.5049 80.1353C88.2178 80.4292 87.8691 80.6855 87.459 80.9043C87.0488 81.1162 86.5977 81.2837 86.1055 81.4067L91.0581 88H88.4023L83.6753 81.6118H82.0757V88H79.7891V74.4033ZM82.0757 80.9248H83.3984C83.9111 80.9248 84.3828 80.8564 84.8135 80.7197C85.251 80.583 85.627 80.3916 85.9414 80.1455C86.2627 79.8926 86.5122 79.5884 86.6899 79.2329C86.8677 78.8774 86.9565 78.4775 86.9565 78.0332C86.9565 77.623 86.8848 77.2471 86.7412 76.9053C86.6045 76.5635 86.4062 76.2729 86.1465 76.0337C85.8936 75.7876 85.5894 75.5962 85.2339 75.4595C84.8853 75.3228 84.5024 75.2544 84.0854 75.2544H82.0757V80.9248ZM98.2358 74.0957L104.634 88H102.307L100.235 83.4678H94.4009L92.2578 88H91.1094L97.6616 74.0957H98.2358ZM94.8008 82.5859H99.8149L97.3438 77.2026L94.8008 82.5859ZM106.531 74.4033H107.813L116.724 84.3496H116.826V74.4033H117.831V88.3179H117.298L107.649 77.2642H107.567V88H106.531V74.4033ZM132.207 74.4033V75.2852H127.285V88H124.999V75.2852H120.077V74.4033H132.207Z" fill="#FFF6E7"/>
<path d="M22.999 109.253C22.999 110.203 23.1426 111.058 23.4297 111.816C23.7168 112.568 24.1099 113.208 24.6089 113.734C25.1147 114.253 25.7095 114.653 26.3931 114.934C27.0767 115.207 27.8184 115.344 28.6182 115.344C29.0967 115.344 29.5581 115.251 30.0024 115.067C30.4468 114.882 30.8569 114.643 31.2329 114.349C31.6157 114.048 31.9575 113.713 32.2583 113.344C32.5591 112.968 32.8052 112.589 32.9966 112.206L33.9604 112.821C33.6802 113.279 33.3486 113.72 32.9658 114.144C32.583 114.561 32.1387 114.934 31.6328 115.262C31.1338 115.583 30.5664 115.839 29.9307 116.031C29.3018 116.222 28.5977 116.318 27.8184 116.318C26.6904 116.318 25.665 116.13 24.7422 115.754C23.8262 115.378 23.04 114.869 22.3838 114.226C21.7275 113.583 21.2183 112.835 20.856 111.98C20.5005 111.119 20.3228 110.21 20.3228 109.253C20.3228 108.617 20.4048 107.999 20.5688 107.397C20.7329 106.789 20.9688 106.221 21.2764 105.695C21.5908 105.162 21.9702 104.676 22.4146 104.239C22.8657 103.794 23.3716 103.415 23.9321 103.101C24.4995 102.779 25.1182 102.533 25.7881 102.362C26.458 102.185 27.1724 102.096 27.9312 102.096C28.6558 102.096 29.3223 102.195 29.9307 102.393C30.5459 102.584 31.103 102.841 31.6021 103.162C32.1079 103.483 32.5557 103.856 32.9453 104.28C33.3418 104.697 33.6802 105.134 33.9604 105.592L32.9658 106.249C32.3984 105.148 31.7627 104.345 31.0586 103.839C30.3545 103.326 29.5444 103.07 28.6284 103.07C27.8423 103.07 27.1074 103.213 26.4238 103.5C25.7402 103.788 25.1421 104.198 24.6294 104.731C24.1235 105.264 23.7236 105.914 23.4297 106.679C23.1426 107.438 22.999 108.296 22.999 109.253ZM44.04 116.318C42.9873 116.318 42.0029 116.13 41.0869 115.754C40.1777 115.378 39.3848 114.865 38.708 114.216C38.0381 113.56 37.5083 112.797 37.1187 111.929C36.7358 111.054 36.5444 110.121 36.5444 109.13C36.5444 108.48 36.6299 107.855 36.8008 107.253C36.9785 106.652 37.228 106.091 37.5493 105.572C37.8706 105.052 38.2568 104.581 38.708 104.157C39.166 103.726 39.6719 103.36 40.2256 103.06C40.7793 102.752 41.3774 102.516 42.02 102.352C42.6626 102.181 43.3359 102.096 44.04 102.096C44.7441 102.096 45.4175 102.181 46.0601 102.352C46.7026 102.516 47.3008 102.752 47.8545 103.06C48.415 103.36 48.9209 103.726 49.3721 104.157C49.8232 104.581 50.2095 105.052 50.5308 105.572C50.8589 106.091 51.1084 106.652 51.2793 107.253C51.457 107.855 51.5459 108.48 51.5459 109.13C51.5459 109.786 51.457 110.422 51.2793 111.037C51.1084 111.646 50.8589 112.216 50.5308 112.75C50.2095 113.283 49.8232 113.768 49.3721 114.206C48.9209 114.643 48.415 115.019 47.8545 115.333C47.3008 115.648 46.7026 115.891 46.0601 116.062C45.4175 116.232 44.7441 116.318 44.04 116.318ZM44.04 115.641C44.8193 115.641 45.5063 115.48 46.1011 115.159C46.7026 114.831 47.2085 114.376 47.6187 113.795C48.0288 113.214 48.3364 112.527 48.5415 111.734C48.7534 110.941 48.8594 110.073 48.8594 109.13C48.8594 108.193 48.7534 107.335 48.5415 106.556C48.3364 105.777 48.0288 105.107 47.6187 104.546C47.2085 103.979 46.7026 103.542 46.1011 103.234C45.5063 102.919 44.8193 102.762 44.04 102.762C43.2471 102.762 42.5498 102.919 41.9482 103.234C41.3535 103.542 40.8511 103.979 40.4409 104.546C40.0376 105.107 39.7334 105.777 39.5283 106.556C39.3232 107.335 39.2207 108.193 39.2207 109.13C39.2207 110.073 39.3232 110.941 39.5283 111.734C39.7334 112.527 40.0376 113.214 40.4409 113.795C40.8511 114.376 41.3535 114.831 41.9482 115.159C42.5498 115.48 43.2471 115.641 44.04 115.641ZM54.6221 102.403H56.96L62.251 112.832H62.3638L67.5522 102.403H69.8491V116H67.5522V104.854H67.4805L61.9023 116H61.4307L55.791 104.946H55.6372V116H54.6221V102.403ZM73.5508 102.403H77.8574C78.5684 102.403 79.2349 102.489 79.8569 102.66C80.479 102.831 81.019 103.083 81.4771 103.418C81.9419 103.747 82.3042 104.153 82.564 104.639C82.8306 105.117 82.9639 105.667 82.9639 106.29C82.9639 106.905 82.834 107.441 82.5742 107.899C82.3213 108.357 81.9829 108.737 81.5591 109.038C81.1421 109.338 80.667 109.564 80.1338 109.714C79.6006 109.858 79.0571 109.93 78.5034 109.93C78.2642 109.93 78.0146 109.926 77.7549 109.919C77.4951 109.906 77.2456 109.889 77.0063 109.868C76.7671 109.848 76.5449 109.824 76.3398 109.796C76.1348 109.769 75.9673 109.742 75.8374 109.714V116H73.5508V102.403ZM75.8374 108.945C76.0972 109.034 76.374 109.109 76.668 109.171C76.9619 109.226 77.2627 109.253 77.5703 109.253C78.0625 109.253 78.4932 109.181 78.8623 109.038C79.2314 108.887 79.5391 108.686 79.7852 108.433C80.0312 108.173 80.2124 107.872 80.3286 107.53C80.4517 107.182 80.5132 106.812 80.5132 106.423C80.5132 105.965 80.4346 105.551 80.2773 105.182C80.1201 104.813 79.9014 104.499 79.6211 104.239C79.3477 103.972 79.0229 103.767 78.647 103.624C78.2778 103.48 77.8813 103.408 77.4575 103.408H75.8374V108.945ZM85.6914 102.403H87.978V115.118H94.8276V116H85.6914V102.403ZM106.322 102.403V103.285H99.1548V108.146H103.954V109.027H99.1548V115.118H106.322V116H96.8682V102.403H106.322ZM108.363 116H107.163L112.895 109.294L107.666 102.403H110.383L114.331 107.623L118.781 102.403H119.991L114.884 108.371L120.678 116H117.94L113.449 110.042L108.363 116Z" fill="#FFF6E7"/>
</svg>
