<svg width="45" height="26" viewBox="0 0 45 26" fill="none" xmlns="http://www.w3.org/2000/svg">
<path fill-rule="evenodd" clip-rule="evenodd" d="M27.3248 0.911405H27.0196C25.8422 0.911405 24.9009 1.53081 24.1985 2.76671L16.279 20.3136C15.0786 22.8755 14.4309 24.5825 14.3416 25.4288H14.0365L3.26132 2.80161C2.51284 1.45811 1.6377 0.914311 0.134995 0.914311V0.571167H13.0174V0.914311C11.6557 0.914311 10.9648 1.69075 11.4197 3.07787L16.2819 14.8553L21.3456 3.07787C21.9789 1.69366 21.0808 0.914311 19.7479 0.914311V0.571167H27.3277V0.911405H27.3248Z" fill="#261200"/>
<path fill-rule="evenodd" clip-rule="evenodd" d="M44.8679 25.0827V25.4258H31.9855V25.0827C33.3414 25.0827 34.1561 24.3382 33.6177 22.9191C31.8934 18.7636 30.5029 15.4194 28.7239 11.1417L26.4727 16.3732C25.8653 16.0621 25.0103 15.7189 24.2935 15.4979L28.7239 5.68341C29.9243 3.12146 30.572 1.41447 30.6613 0.568237H30.9664L41.7416 23.1954C42.5044 24.5185 43.3652 25.0827 44.8679 25.0827Z" fill="#261200"/>
<path fill-rule="evenodd" clip-rule="evenodd" d="M27.9207 25.3154C27.296 25.3881 26.6915 25.4259 26.1042 25.4259C25.5169 25.4259 24.9498 25.2892 24.4 25.0159C23.8069 25.2892 23.0729 25.4259 22.2006 25.4259C20.9973 25.4259 20.0185 25.2253 19.2643 24.8269C18.464 24.3965 18.0638 23.78 18.0638 22.9716C18.0638 22.1631 18.4381 21.567 19.1866 21.1599C19.3852 21.0552 19.5925 20.9709 19.8141 20.904C19.4975 20.3922 19.342 19.924 19.342 19.4994C19.342 19.0748 19.4284 18.723 19.604 18.4496C19.7796 18.1763 20.0156 17.964 20.3093 17.8157C20.8821 17.5278 21.5443 17.3824 22.3014 17.3824C22.8224 17.3824 23.3032 17.4464 23.7465 17.5772C24.1783 17.7023 24.4806 17.8942 24.6533 18.1501L24.0344 19.5896C23.9451 18.4874 23.5277 17.9378 22.7764 17.9378C22.3215 17.9378 21.9962 18.1181 21.7976 18.4816C21.7026 18.6532 21.6536 18.8451 21.6536 19.0603C21.6536 19.4442 21.8005 19.8193 22.0941 20.177C22.3877 20.5376 22.8857 21.0232 23.591 21.6368L25.065 22.9134C25.1225 22.6546 25.1513 22.3783 25.1513 22.0846C25.1513 21.7909 25.0794 21.4885 24.9383 21.1744C24.7944 20.8604 24.5871 20.7033 24.3165 20.7033H24.1409V20.5928H26.9563V20.7033H26.8008C26.6972 20.7033 26.6224 20.7324 26.5705 20.7877C26.5187 20.8429 26.4871 20.9011 26.4727 20.965C26.4583 21.029 26.4468 21.1046 26.441 21.1919C26.3518 22.2358 26.1589 23.0472 25.8566 23.6259C26.8239 24.4779 27.509 25.0013 27.9149 25.1933L27.9207 25.3154ZM21.3168 24.3412C21.5615 24.5157 21.8177 24.6466 22.0855 24.7367C22.3532 24.8269 22.6382 24.8705 22.9433 24.8705C23.2485 24.8705 23.5392 24.7949 23.8185 24.6495C23.5047 24.4197 23.1017 24.0999 22.6151 23.6927C22.1286 23.2856 21.8638 23.0675 21.8292 23.0355C21.2794 22.5761 20.8303 22.1602 20.4877 21.7909C20.4302 21.977 20.3985 22.1399 20.3985 22.2795C20.3985 22.8116 20.4906 23.2449 20.6749 23.5793C20.8562 23.9138 21.0693 24.1667 21.3168 24.3412Z" fill="#261200"/>
</svg>
