<svg width="67" height="66" viewBox="0 0 67 66" fill="none" xmlns="http://www.w3.org/2000/svg">
<path fill-rule="evenodd" clip-rule="evenodd" d="M38.3248 20.9114H38.0196C36.8422 20.9114 35.9009 21.5308 35.1985 22.7667L27.279 40.3136C26.0786 42.8755 25.4309 44.5825 25.3416 45.4288H25.0365L14.2613 22.8016C13.5128 21.4581 12.6377 20.9143 11.135 20.9143V20.5712H24.0174V20.9143C22.6557 20.9143 21.9648 21.6907 22.4197 23.0779L27.2819 34.8553L32.3456 23.0779C32.9789 21.6937 32.0808 20.9143 30.7479 20.9143V20.5712H38.3277V20.9114H38.3248Z" fill="#261200"/>
<path fill-rule="evenodd" clip-rule="evenodd" d="M55.8679 45.0827V45.4258H42.9855V45.0827C44.3414 45.0827 45.1561 44.3382 44.6177 42.9191C42.8934 38.7636 41.5029 35.4194 39.7239 31.1417L37.4727 36.3732C36.8653 36.0621 36.0103 35.7189 35.2935 35.4979L39.7239 25.6834C40.9243 23.1215 41.572 21.4145 41.6613 20.5682H41.9664L52.7416 43.1954C53.5044 44.5185 54.3652 45.0827 55.8679 45.0827Z" fill="#261200"/>
<path fill-rule="evenodd" clip-rule="evenodd" d="M38.9207 45.3154C38.296 45.3881 37.6915 45.4259 37.1042 45.4259C36.5169 45.4259 35.9498 45.2892 35.4 45.0159C34.8069 45.2892 34.0729 45.4259 33.2006 45.4259C31.9973 45.4259 31.0185 45.2253 30.2643 44.8269C29.464 44.3965 29.0638 43.78 29.0638 42.9716C29.0638 42.1631 29.4381 41.567 30.1866 41.1599C30.3852 41.0552 30.5925 40.9709 30.8141 40.904C30.4975 40.3922 30.342 39.924 30.342 39.4994C30.342 39.0748 30.4284 38.723 30.604 38.4496C30.7796 38.1763 31.0156 37.964 31.3093 37.8157C31.8821 37.5278 32.5443 37.3824 33.3014 37.3824C33.8224 37.3824 34.3032 37.4464 34.7465 37.5772C35.1783 37.7023 35.4806 37.8942 35.6533 38.1501L35.0344 39.5896C34.9451 38.4874 34.5277 37.9378 33.7764 37.9378C33.3215 37.9378 32.9962 38.1181 32.7976 38.4816C32.7026 38.6532 32.6536 38.8451 32.6536 39.0603C32.6536 39.4442 32.8005 39.8193 33.0941 40.177C33.3877 40.5376 33.8857 41.0232 34.591 41.6368L36.065 42.9134C36.1225 42.6546 36.1513 42.3783 36.1513 42.0846C36.1513 41.7909 36.0794 41.4885 35.9383 41.1744C35.7944 40.8604 35.5871 40.7033 35.3165 40.7033H35.1409V40.5928H37.9563V40.7033H37.8008C37.6972 40.7033 37.6224 40.7324 37.5705 40.7877C37.5187 40.8429 37.4871 40.9011 37.4727 40.965C37.4583 41.029 37.4468 41.1046 37.441 41.1919C37.3518 42.2358 37.1589 43.0472 36.8566 43.6259C37.8239 44.4779 38.509 45.0013 38.9149 45.1933L38.9207 45.3154ZM32.3168 44.3412C32.5615 44.5157 32.8177 44.6466 33.0855 44.7367C33.3532 44.8269 33.6382 44.8705 33.9433 44.8705C34.2485 44.8705 34.5392 44.7949 34.8185 44.6495C34.5047 44.4197 34.1017 44.0999 33.6151 43.6927C33.1286 43.2856 32.8638 43.0675 32.8292 43.0355C32.2794 42.5761 31.8303 42.1602 31.4877 41.7909C31.4302 41.977 31.3985 42.1399 31.3985 42.2795C31.3985 42.8116 31.4906 43.2449 31.6749 43.5793C31.8562 43.9138 32.0693 44.1667 32.3168 44.3412Z" fill="#261200"/>
</svg>
