<svg width="44" height="44" viewBox="0 0 44 44" fill="none" xmlns="http://www.w3.org/2000/svg">
<path d="M16.1639 32.6C16.3415 32.1005 16.1639 32.6 16.8439 30.9381C17.2439 29.96 17.6737 28.9871 18.0644 28.004C19.688 23.9157 20.9004 20.7236 22.4812 16.9034C23.9022 13.4685 25.6764 9.97051 28.2545 7.24211C29.6014 5.81659 31.2559 4.56055 33.1947 4.09814C30.1123 4.09814 28.0663 5.63733 26.6062 7.08933C24.3512 9.3317 22.9802 12.1139 21.714 14.9869C20.3651 18.047 19.0422 21.1612 17.7992 24.24C17.5381 24.8873 17.3959 25.1187 17.2631 25.3628L12.5367 14.276C12.3628 13.8604 12.2459 13.4176 12.2491 12.967C12.2536 12.3816 12.4129 11.8043 12.78 11.3553L5.30771 11.3451C6.81349 12.833 7.72689 14.8024 8.60934 16.7261C10.6672 21.2125 12.5917 25.7628 14.7832 30.1857C15.2269 31.0811 15.6269 31.8458 16.1639 32.5996V32.6Z" fill="#261200"/>
<path d="M32.8929 21.8883C34.7193 21.5037 37.0464 21.166 38.6923 21.7135C36.4402 20.3153 34.2402 20.2905 32.3917 20.6054C31.3671 18.3255 30.3262 16.0534 29.2164 13.8139C28.7727 12.9184 28.3727 12.1537 27.8357 11.4C27.6585 11.8995 27.8357 11.4 27.1557 13.0618C26.7557 14.04 26.3259 15.0129 25.9352 15.996C24.3116 20.0843 23.0992 23.2764 21.5184 27.0966C20.0974 30.5315 18.3232 34.0295 15.7451 36.7579C14.3982 38.1834 12.7437 39.4394 10.8049 39.9018C13.8873 39.9018 15.9333 38.3627 17.3934 36.9107C19.6484 34.6683 21.0194 31.8861 22.2856 29.0131C22.717 28.0349 23.1436 27.2131 23.5681 26.2264C25.1831 25.1386 26.8848 24.1319 28.6656 23.3252L31.4629 29.724C31.6368 30.1395 31.7537 30.5824 31.7505 31.033C31.746 31.6184 31.5867 32.1957 31.2196 32.6447L38.6919 32.6549C37.1865 31.167 36.2727 29.1976 35.3903 27.2738C34.5449 25.4307 33.7207 23.74 32.8925 21.8887L32.8929 21.8883ZM24.4057 24.1022C25.0177 22.653 25.6186 21.2031 26.2012 19.76C26.4623 19.1127 26.6045 18.8812 26.7373 18.6372L28.1543 21.9608C26.8534 22.5667 25.6186 23.3073 24.4062 24.1022H24.4057Z" fill="#261200"/>
</svg>
